<svg width="14" height="16" viewBox="0 0 14 16" fill="none" xmlns="http://www.w3.org/2000/svg">
<path d="M3.34878 10.4C3.41295 10.106 3.29628 9.686 3.09211 9.476L1.67461 8.018C1.23128 7.562 1.05628 7.076 1.18461 6.656C1.31878 6.236 1.73295 5.948 2.35128 5.84L4.17128 5.528C4.43378 5.48 4.75461 5.24 4.87711 4.994L5.88045 2.924C6.17211 2.33 6.56878 2 7.00045 2C7.43211 2 7.82878 2.33 8.12045 2.924L9.12378 4.994C9.19961 5.15 9.35711 5.3 9.52628 5.402L3.24378 11.864C3.16211 11.948 3.02211 11.87 3.04545 11.75L3.34878 10.4Z" fill="#E76A43"/>
<path d="M10.9078 9.47594C10.6978 9.69194 10.5811 10.1059 10.6511 10.3999L11.0536 12.2059C11.2228 12.9559 11.1178 13.5199 10.7561 13.7899C10.6103 13.8979 10.4353 13.9519 10.2311 13.9519C9.93365 13.9519 9.58365 13.8379 9.19865 13.6039L7.48948 12.5599C7.22115 12.3979 6.77781 12.3979 6.50948 12.5599L4.80031 13.6039C4.15281 13.9939 3.59865 14.0599 3.24281 13.7899C3.10865 13.6879 3.00948 13.5499 2.94531 13.3699L10.0386 6.07394C10.307 5.79794 10.6861 5.67194 11.0536 5.73794L11.6428 5.83994C12.2611 5.94794 12.6753 6.23594 12.8095 6.65594C12.9378 7.07594 12.7628 7.56194 12.3195 8.01794L10.9078 9.47594Z" fill="#E76A43"/>
</svg>
